<!DOCTYPE svg PUBLIC "-//W3C//DTD SVG 1.1//EN" "http://www.w3.org/Graphics/SVG/1.1/DTD/svg11.dtd">

<!-- Uploaded to: SVG Repo, www.svgrepo.com, Transformed by: SVG Repo Mixer Tools -->
<svg width="64px" height="64px" viewBox="0 0 25 25" xmlns="http://www.w3.org/2000/svg" fill="currentColor">

  <g id="SVGRepo_bgCarrier" stroke-width="0" />

  <g id="SVGRepo_tracerCarrier" stroke-linecap="round" stroke-linejoin="round" />

  <g id="SVGRepo_iconCarrier">
    <!-- <defs>
      <style>
        .cls-1 {
          fill: currentColor;
        }
      </style>
    </defs> -->
    <g data-name="clock 1" id="clock_1">
      <path
        d="M12.5,1A11.5,11.5,0,1,0,24,12.5,11.51,11.51,0,0,0,12.5,1Zm0,22A10.5,10.5,0,1,1,23,12.5,10.51,10.51,0,0,1,12.5,23Z" />
      <path d="M13,12.6V5.5a.5.5,0,0,0-1,0v7.32a.48.48,0,0,0,.16.36l5,4.68a.45.45,0,0,0,.34.14.5.5,0,0,0,.34-.86Z" />
    </g>
  </g>

</svg>