<?xml version="1.0" encoding="utf-8"?>
<!-- Generator: Adobe Illustrator 16.0.0, SVG Export Plug-In . SVG Version: 6.00 Build 0)  -->
<!DOCTYPE svg PUBLIC "-//W3C//DTD SVG 1.1//EN" "http://www.w3.org/Graphics/SVG/1.1/DTD/svg11.dtd">
<svg version="1.1" id="Layer_1" xmlns="http://www.w3.org/2000/svg" xmlns:xlink="http://www.w3.org/1999/xlink" x="0px" y="0px"
	  viewBox="0 0 133 42" enable-background="new 0 0 133 42" xml:space="preserve">
<g>
	<path fill="#99002E" d="M108.456,37.312c-20.198,4.438-46.828-0.085-46.828-0.085s61.455,5.73,59.83-17.159
		C119.809-3.156,32.824,6.63,32.824,6.63c53.312-8.552,77.762-0.479,79.71-0.123c10.131,2.699,16.71,7.668,17.313,13.118
		C131.466,29.633,117.64,35.294,108.456,37.312"/>
	<path fill="#99002E" d="M73.433,32.458c-2.049,0-3.442-0.47-4.182-1.407c-0.736-0.936-0.866-2.352-0.254-4.266l3.537-10.798
		c0.732-2.278,1.671-3.8,2.819-4.568c1.15-0.768,2.944-1.151,5.39-1.151h2.507c2.441,0,3.518,0.256,4.439,1.303
		c0.793,0.898,0.824,2.139,0.093,4.417l-3.521,10.791c-0.613,1.911-1.279,3.493-2.619,4.432c-1.337,0.937-3.345,1.249-5.394,1.249
		H73.433z M84.83,15.656c0.256-0.873,0.473-1.68,0.096-2.254c-0.277-0.426-0.683-0.56-1.451-0.62
		c-0.704-0.102-1.941-0.053-1.941-0.053c-1.066,0.03-1.715,0.227-2.248,0.655c-0.535,0.43-0.811,0.881-1.256,2.265l-3.733,11.45
		c-0.345,1.07-0.386,1.818-0.129,2.25c0.258,0.428,1.058,0.697,2.332,0.697c1.202-0.002,2.335-0.049,3.338-0.81
		c0.579-0.364,0.864-1.067,1.239-2.13L84.83,15.656z"/>
	<path fill="#99002E" d="M15.448,32.1c0,0-12.427,0.013-12.425,0.003l7.056-21.516h5.26c0,0-6.37,19.106-6.319,19.106h7.23
		L15.448,32.1z"/>
	<path fill="#99002E" d="M35.961,13.026c-0.006,0,0.802-2.427,0.802-2.427H24.427h-0.004l-7.051,21.502l12.311-0.003l0.806-2.405
		h-7.115c-0.023,0,1.286-3.964,2.716-8.28h6.19c-0.007,0,0.794-2.427,0.794-2.427s-3.243,0-6.179-0.001
		c0.744-2.239,1.46-4.394,1.98-5.959H35.961z"/>
	<path fill="#99002E" d="M68.41,10.583l-4.675,14.398l-1.961-14.396l-5.152,0.003l-7.003,21.514h5.154l4.699-14.405
		c0,0,1.921,14.188,1.954,14.399l-0.001,0.006h2.991l6.993-21.52H68.41z"/>
	<polygon fill="#99002E" points="105.665,10.583 101.908,10.583 97.434,16.227 96.323,10.583 90.812,10.588 92.841,20.366 
		83.897,32.103 87.596,32.103 93.629,24.166 95.276,32.1 100.559,32.103 98.203,20.128 	"/>
	<path fill="#99002E" d="M50.66,10.583l-4.677,14.399l-1.957-14.394l-5.155,0.002l-7.002,21.515h5.153l4.697-14.408
		c0,0,1.924,14.205,1.956,14.4l-0.001,0.008h2.991l6.995-21.522H50.66z"/>
	<path fill="#99002E" d="M120.539,37.27c0,1.108-0.907,2.015-2.017,2.015c-1.107,0-2.013-0.906-2.013-2.015
		c0-1.106,0.905-2.015,2.013-2.015C119.632,35.255,120.539,36.163,120.539,37.27 M116.844,37.27c0,0.913,0.768,1.676,1.679,1.681
		c0.914-0.005,1.683-0.768,1.683-1.681c0-0.912-0.769-1.681-1.683-1.681C117.611,35.589,116.844,36.357,116.844,37.27
		 M117.994,36.174h0.869c0.473,0,0.651,0.25,0.651,0.483c0,0.452-0.284,0.592-0.522,0.707l0.355,0.919l-0.578,0.078l-0.27-0.885
		h-0.243l-0.18,0.852h-0.527L117.994,36.174z M118.341,37.153h0.189c0.271,0,0.444-0.162,0.444-0.407
		c0-0.132-0.106-0.249-0.279-0.249h-0.222L118.341,37.153z"/>
</g>
</svg>
