<svg width="200" height="46" viewBox="0 0 305 46" fill="none" xmlns="http://www.w3.org/2000/svg">
  <path fill-rule="evenodd" clip-rule="evenodd"
    d="M22.3906 46C10.5987 45.6175 0.982658 36.4732 0 24.9645L22.3906 46ZM31.796 44.4006C30.7081 44.8526 29.5499 45.2003 28.3918 45.4437L0.21057 19.4361C0.386044 18.254 0.666804 17.1413 1.01775 16.0287L31.796 44.4006ZM39.201 39.672C37.9727 40.8193 36.6391 41.8277 35.2002 42.6969L1.4038 14.9161C1.82494 13.8382 2.31627 12.8299 2.84269 11.8216L39.201 39.672ZM43.3422 34.4913C42.5 35.9169 41.5173 37.2729 40.3943 38.4898L5.15895 8.48375C5.86085 7.61451 6.63294 6.81481 7.47522 6.04989L43.3422 34.4913ZM23.1627 0C35.9723 0 46.4306 10.3265 46.4306 23.0174C46.4306 24.8254 46.22 26.5986 45.7989 28.3023L10.8794 3.54649L45.0619 30.771C44.7811 31.5707 44.4302 32.3008 44.0792 33.0658L8.73864 4.97203C10.2828 3.7551 11.9674 2.74679 13.7572 1.94709L31.4451 12.6213L17.4422 0.695389C19.2671 0.243386 21.1973 0 23.1627 0Z"
    fill="#2F3370" />
  <path d="M66.6686 10.6992H62.7003V33.7744H66.6686V10.6992Z" fill="#2F3370" stroke="#2F3370" stroke-width="0.5"
    stroke-miterlimit="10" />
  <path d="M236.605 14.6616V10.6992H240.34V14.6616H236.605ZM236.605 33.5413V16.9925H240.34V33.5413H236.605Z"
    fill="#2F3370" stroke="#2F3370" stroke-width="0.5" stroke-miterlimit="10" />
  <path
    d="M69.9366 16.9925H73.6715V23.0526H78.8069V16.9925H82.5418V33.5414H78.8069V26.5489H73.6715V33.5414H69.9366V16.9925Z"
    fill="#2F3370" stroke="#2F3370" stroke-width="0.5" stroke-miterlimit="10" />
  <path
    d="M117.79 28.1804L121.525 28.8797C121.058 30.5113 120.357 31.6767 119.424 32.609C118.257 33.5413 117.089 33.7744 115.689 33.7744C113.354 33.7744 111.487 32.8421 110.32 30.9774C109.153 29.5789 108.686 27.7143 108.686 25.3834C108.686 22.5865 109.153 20.4887 110.32 18.8571C111.487 17.2256 113.121 16.5263 114.989 16.5263C117.089 16.5263 118.723 17.4586 119.891 19.0902C121.058 20.7218 121.758 23.2857 121.525 26.5489H112.421C112.421 27.7143 112.654 28.8797 113.354 29.5789C114.055 30.2782 114.522 30.7443 115.455 30.7443C116.156 30.7443 116.623 30.5113 116.856 30.2782C117.323 29.812 117.556 29.1128 117.79 28.1804ZM118.023 23.7519C118.023 22.3534 117.79 21.421 117.089 20.9549C116.623 20.2556 115.922 19.7895 115.222 19.7895C114.522 19.7895 113.821 20.2556 113.121 20.9549C112.654 21.6541 112.421 22.5865 112.421 23.7519H118.023Z"
    fill="#2F3370" stroke="#2F3370" stroke-width="0.5" stroke-miterlimit="10" />
  <path
    d="M171.478 16.9925H175.213V23.0526H180.582V16.9925H184.084V33.5414H180.582V26.5489H175.213V33.5414H171.478V16.9925Z"
    fill="#2F3370" stroke="#2F3370" stroke-width="0.5" stroke-miterlimit="10" />
  <path
    d="M203.925 16.9925H207.426V27.4812L213.029 16.9925H216.53V33.5414H213.029V23.0526L207.426 33.5414H203.925V16.9925Z"
    fill="#2F3370" stroke="#2F3370" stroke-width="0.5" stroke-miterlimit="10" />
  <path
    d="M220.265 16.9925H223.767V30.0451H229.135V16.9925H232.637V30.0451H234.271V37.9699H231.236V33.5414H220.265V16.9925Z"
    fill="#2F3370" stroke="#2F3370" stroke-width="0.5" stroke-miterlimit="10" />
  <path
    d="M243.141 25.1503C243.141 23.7518 243.375 22.3533 244.075 20.9548C244.775 19.5563 245.475 18.624 246.643 17.9248C247.81 17.2255 248.977 16.7593 250.377 16.7593C252.478 16.7593 254.112 17.6917 255.513 19.3232C256.914 20.9548 257.614 23.0526 257.614 25.6165C257.614 28.1804 256.914 30.2781 255.513 31.9097C254.112 33.5413 252.478 34.2405 250.377 34.2405C249.21 34.2405 248.043 34.0075 246.876 33.3082C245.709 32.609 244.775 31.6766 244.308 30.2781C243.375 28.6466 243.141 27.015 243.141 25.1503ZM246.876 25.1503C246.876 26.7819 247.109 28.1804 247.81 28.8796C248.51 29.812 249.21 30.2781 250.144 30.2781C251.078 30.2781 252.011 29.812 252.478 28.8796C253.179 27.9473 253.412 26.7819 253.412 25.1503C253.412 23.5187 253.179 22.3533 252.478 21.421C251.778 20.4887 251.078 20.0225 250.144 20.0225C249.21 20.0225 248.51 20.4887 247.81 21.421C247.343 22.3533 246.876 23.5187 246.876 25.1503Z"
    fill="#2F3370" stroke="#2F3370" stroke-width="0.5" stroke-miterlimit="10" />
  <path
    d="M260.182 16.9925H263.683V23.0526H269.052V16.9925H272.553V33.5414H269.052V26.5489H263.683V33.5414H260.182V16.9925Z"
    fill="#2F3370" stroke="#2F3370" stroke-width="0.5" stroke-miterlimit="10" />
  <path
    d="M284.225 28.1804L287.96 28.8797C287.493 30.5113 286.793 31.6767 285.859 32.609C284.692 33.5413 283.525 33.7744 282.124 33.7744C279.79 33.7744 277.922 32.8421 276.755 30.9774C275.821 29.3458 275.354 27.4812 275.354 25.1504C275.354 22.3534 275.821 20.2556 276.988 18.624C278.156 16.9925 279.79 16.2932 281.657 16.2932C283.758 16.2932 285.392 17.2255 286.559 18.8571C287.726 20.4887 288.193 23.0526 288.193 26.3158H279.089C279.089 27.4812 279.323 28.6466 280.023 29.3458C280.723 30.0451 281.19 30.5113 282.124 30.5113C282.824 30.5113 283.291 30.2782 283.525 30.0451C283.758 29.812 283.991 29.1128 284.225 28.1804ZM284.458 23.7519C284.458 22.3534 284.225 21.421 283.525 20.9549C283.058 20.2556 282.357 19.7895 281.657 19.7895C280.957 19.7895 280.257 20.2556 279.79 20.9549C279.323 21.6541 279.089 22.5864 279.089 23.7519H284.458Z"
    fill="#2F3370" stroke="#2F3370" stroke-width="0.5" stroke-miterlimit="10" />
  <path
    d="M290.994 16.9925H294.496V19.3233C294.963 18.391 295.429 17.6917 296.363 17.2256C297.063 16.7594 297.997 16.5263 298.931 16.5263C300.565 16.5263 301.732 17.2256 302.899 18.8571C304.066 20.4887 304.533 22.5865 304.533 25.1504C304.533 27.9474 303.833 30.0451 302.899 31.6767C301.732 33.3083 300.565 34.0075 298.697 34.0075C297.997 34.0075 297.297 33.7744 296.597 33.5413C295.896 33.0752 295.429 32.609 294.729 31.6767V40.0677H290.994V16.9925ZM294.496 24.9173C294.496 26.7819 294.729 28.1804 295.429 29.1128C296.13 30.0451 296.83 30.5113 297.764 30.5113C298.697 30.5113 299.398 30.0451 299.865 29.3459C300.331 28.4135 300.798 27.2481 300.798 25.1504C300.798 23.5188 300.565 22.1203 299.865 21.188C299.164 20.2556 298.464 20.0225 297.764 20.0225C296.83 20.0225 296.13 20.4887 295.663 21.188C294.729 22.1203 294.496 23.2857 294.496 24.9173Z"
    fill="#2F3370" stroke="#2F3370" stroke-width="0.5" stroke-miterlimit="10" />
  <path
    d="M85.8098 16.9925H89.0778V19.3233C90.2449 17.6917 91.6455 16.7594 93.2795 16.7594C94.2132 16.7594 94.9135 16.9925 95.6138 17.4586C96.5475 17.6917 97.0144 18.391 97.4813 19.3233C98.1815 18.391 98.6484 17.6917 99.5821 17.2256C100.282 16.7594 100.983 16.5263 101.683 16.5263C102.617 16.5263 103.55 16.7594 104.251 17.2256C104.951 17.6917 105.418 18.391 105.885 19.3233C106.118 20.0225 106.118 21.188 106.118 22.8195V33.5413H102.617V23.985C102.617 22.3534 102.383 21.188 102.15 20.7218C101.916 20.0225 101.216 19.7895 100.516 19.7895C100.049 19.7895 99.5821 20.0225 99.1153 20.4887C98.6484 20.9549 98.415 21.421 98.1815 22.1203C97.9481 22.8195 97.7147 23.985 97.7147 25.6165V33.5413H93.9798V24.4511C93.9798 22.8195 93.9798 21.8872 93.7464 21.421C93.513 20.9549 93.513 20.4887 93.0461 20.2556C92.8127 20.0225 92.3458 19.7895 91.8789 19.7895C91.4121 19.7895 90.9452 20.0225 90.4784 20.4887C90.0115 20.7218 89.7781 21.421 89.5447 22.1203C89.3112 22.8195 89.3112 23.985 89.3112 25.6165V33.7744H85.5764V16.9925H85.8098Z"
    fill="#2F3370" stroke="#2F3370" stroke-width="0.5" stroke-miterlimit="10" />
  <path
    d="M124.326 16.9925H127.594V19.3233C128.06 18.391 128.761 17.6917 129.461 17.2256C130.161 16.7594 131.095 16.5263 132.029 16.5263C133.663 16.5263 134.83 17.2256 135.997 18.8571C137.164 20.4887 137.631 22.5865 137.631 25.1504C137.631 27.9474 137.164 30.0451 135.997 31.6767C134.83 33.3083 133.663 34.0075 131.795 34.0075C131.095 34.0075 130.395 33.7744 129.694 33.5413C128.994 33.0752 128.527 32.609 127.827 31.6767V40.0677H124.092V16.9925H124.326ZM128.06 24.9173C128.06 26.7819 128.294 28.1804 128.994 29.1128C129.695 30.0451 130.395 30.5113 131.329 30.5113C132.262 30.5113 132.963 30.0451 133.429 29.3459C133.896 28.4135 134.13 27.2481 134.13 25.1504C134.13 23.5188 133.896 22.1203 133.429 21.188C132.729 20.2556 132.029 20.0225 131.329 20.0225C130.628 20.0225 129.694 20.4887 129.228 21.188C128.294 22.1203 128.06 23.2857 128.06 24.9173Z"
    fill="#2F3370" stroke="#2F3370" stroke-width="0.5" stroke-miterlimit="10" />
  <path
    d="M140.666 33.5413V10.6992H144.167V22.8195L148.369 16.9925H153.037L148.369 23.0526L153.271 33.5413H149.303L146.035 26.0827L144.167 28.1804V33.5413H140.666Z"
    fill="#2F3370" stroke="#2F3370" stroke-width="0.5" stroke-miterlimit="10" />
  <path
    d="M154.671 25.1503C154.671 23.7518 154.905 22.3533 155.605 20.9548C156.305 19.5563 157.006 18.624 158.173 17.9248C159.34 17.2255 160.507 16.7593 161.908 16.7593C164.009 16.7593 165.643 17.6917 167.043 19.3232C168.444 20.9548 169.144 23.0526 169.144 25.6165C169.144 28.1804 168.444 30.2781 167.043 31.9097C165.643 33.5413 164.009 34.2405 161.908 34.2405C160.741 34.2405 159.573 34.0075 158.406 33.3082C157.239 32.609 156.305 31.6766 155.839 30.2781C154.905 28.6466 154.671 27.015 154.671 25.1503ZM158.406 25.1503C158.406 26.7819 158.64 28.1804 159.34 28.8796C160.04 29.812 160.741 30.2781 161.674 30.2781C162.608 30.2781 163.542 29.812 164.009 28.8796C164.709 27.9473 164.942 26.7819 164.942 25.1503C164.942 23.5187 164.709 22.3533 164.009 21.421C163.308 20.4887 162.608 20.0225 161.674 20.0225C160.741 20.0225 160.04 20.4887 159.34 21.421C158.64 22.3533 158.406 23.5187 158.406 25.1503Z"
    fill="#2F3370" stroke="#2F3370" stroke-width="0.5" stroke-miterlimit="10" />
  <path
    d="M187.352 34.7067L191.553 35.406C191.553 36.1052 191.787 36.3383 192.02 36.5714C192.254 36.8045 192.954 37.0375 193.654 37.0375C194.588 37.0375 195.288 36.8045 195.755 36.5714C195.989 36.3383 196.222 35.8721 196.455 35.406C196.689 35.1729 196.689 34.4736 196.689 33.3082V30.9774C195.522 32.842 194.121 33.7744 192.487 33.7744C190.62 33.7744 189.219 32.842 188.052 30.9774C187.118 29.3458 186.885 27.7142 186.885 25.3834C186.885 22.5864 187.352 20.4887 188.519 19.0902C189.686 17.6917 191.086 16.7593 192.72 16.7593C194.588 16.7593 195.755 17.6917 196.922 19.5563V16.9924H200.19V31.9097C200.19 34.0075 199.957 35.406 199.723 36.3383C199.49 37.2706 199.023 37.9699 198.556 38.6691C198.089 39.3684 197.389 39.6014 196.455 40.0676C196.222 40.0676 195.055 40.3007 193.888 40.3007C191.553 40.3007 189.919 39.8345 188.752 38.9022C187.818 37.9699 187.352 36.8045 187.352 35.1729C187.352 34.9398 187.352 34.9398 187.352 34.7067ZM190.62 24.9172C190.62 26.7819 190.853 27.9473 191.553 28.6466C192.02 29.5789 192.72 29.812 193.654 29.812C194.588 29.812 195.288 29.3458 195.989 28.6466C196.689 27.7142 196.922 26.5488 196.922 24.9172C196.922 23.2857 196.689 21.8872 195.989 21.1879C195.288 20.4887 194.588 20.0225 193.654 20.0225C192.72 20.0225 192.02 20.4887 191.553 21.1879C191.086 21.8872 190.62 23.2857 190.62 24.9172Z"
    fill="#2F3370" stroke="#2F3370" stroke-width="0.5" stroke-miterlimit="10" />
  <path d="M66.6686 10.6992H62.7003V33.7744H66.6686V10.6992Z" fill="#2F3370" stroke="#2F3370" stroke-width="0.5"
    stroke-miterlimit="10" />
  <path d="M236.605 14.6616V10.6992H240.34V14.6616H236.605ZM236.605 33.5413V16.9925H240.34V33.5413H236.605Z"
    fill="#2F3370" stroke="#2F3370" stroke-width="0.5" stroke-miterlimit="10" />
  <path
    d="M69.9366 16.9925H73.6715V23.0526H78.8069V16.9925H82.5418V33.5414H78.8069V26.5489H73.6715V33.5414H69.9366V16.9925Z"
    fill="#2F3370" stroke="#2F3370" stroke-width="0.5" stroke-miterlimit="10" />
  <path
    d="M117.79 28.1804L121.525 28.8797C121.058 30.5113 120.357 31.6767 119.424 32.609C118.257 33.5413 117.089 33.7744 115.689 33.7744C113.354 33.7744 111.487 32.8421 110.32 30.9774C109.153 29.5789 108.686 27.7143 108.686 25.3834C108.686 22.5865 109.153 20.4887 110.32 18.8571C111.487 17.2256 113.121 16.5263 114.989 16.5263C117.089 16.5263 118.723 17.4586 119.891 19.0902C121.058 20.7218 121.758 23.2857 121.525 26.5489H112.421C112.421 27.7143 112.654 28.8797 113.354 29.5789C114.055 30.2782 114.522 30.7443 115.455 30.7443C116.156 30.7443 116.623 30.5113 116.856 30.2782C117.323 29.812 117.556 29.1128 117.79 28.1804ZM118.023 23.7519C118.023 22.3534 117.79 21.421 117.089 20.9549C116.623 20.2556 115.922 19.7895 115.222 19.7895C114.522 19.7895 113.821 20.2556 113.121 20.9549C112.654 21.6541 112.421 22.5865 112.421 23.7519H118.023Z"
    fill="#2F3370" stroke="#2F3370" stroke-width="0.5" stroke-miterlimit="10" />
  <path
    d="M171.478 16.9925H175.213V23.0526H180.582V16.9925H184.084V33.5414H180.582V26.5489H175.213V33.5414H171.478V16.9925Z"
    fill="#2F3370" stroke="#2F3370" stroke-width="0.5" stroke-miterlimit="10" />
  <path
    d="M203.925 16.9925H207.426V27.4812L213.029 16.9925H216.53V33.5414H213.029V23.0526L207.426 33.5414H203.925V16.9925Z"
    fill="#2F3370" stroke="#2F3370" stroke-width="0.5" stroke-miterlimit="10" />
  <path
    d="M220.265 16.9925H223.767V30.0451H229.135V16.9925H232.637V30.0451H234.271V37.9699H231.236V33.5414H220.265V16.9925Z"
    fill="#2F3370" stroke="#2F3370" stroke-width="0.5" stroke-miterlimit="10" />
  <path
    d="M243.141 25.1503C243.141 23.7518 243.375 22.3533 244.075 20.9548C244.775 19.5563 245.475 18.624 246.643 17.9248C247.81 17.2255 248.977 16.7593 250.377 16.7593C252.478 16.7593 254.112 17.6917 255.513 19.3232C256.914 20.9548 257.614 23.0526 257.614 25.6165C257.614 28.1804 256.914 30.2781 255.513 31.9097C254.112 33.5413 252.478 34.2405 250.377 34.2405C249.21 34.2405 248.043 34.0075 246.876 33.3082C245.709 32.609 244.775 31.6766 244.308 30.2781C243.375 28.6466 243.141 27.015 243.141 25.1503ZM246.876 25.1503C246.876 26.7819 247.109 28.1804 247.81 28.8796C248.51 29.812 249.21 30.2781 250.144 30.2781C251.078 30.2781 252.011 29.812 252.478 28.8796C253.179 27.9473 253.412 26.7819 253.412 25.1503C253.412 23.5187 253.179 22.3533 252.478 21.421C251.778 20.4887 251.078 20.0225 250.144 20.0225C249.21 20.0225 248.51 20.4887 247.81 21.421C247.343 22.3533 246.876 23.5187 246.876 25.1503Z"
    fill="#2F3370" stroke="#2F3370" stroke-width="0.5" stroke-miterlimit="10" />
  <path
    d="M260.182 16.9925H263.683V23.0526H269.052V16.9925H272.553V33.5414H269.052V26.5489H263.683V33.5414H260.182V16.9925Z"
    fill="#2F3370" stroke="#2F3370" stroke-width="0.5" stroke-miterlimit="10" />
  <path
    d="M284.225 28.1804L287.96 28.8797C287.493 30.5113 286.793 31.6767 285.859 32.609C284.692 33.5413 283.525 33.7744 282.124 33.7744C279.79 33.7744 277.922 32.8421 276.755 30.9774C275.821 29.3458 275.354 27.4812 275.354 25.1504C275.354 22.3534 275.821 20.2556 276.988 18.624C278.156 16.9925 279.79 16.2932 281.657 16.2932C283.758 16.2932 285.392 17.2255 286.559 18.8571C287.726 20.4887 288.193 23.0526 288.193 26.3158H279.089C279.089 27.4812 279.323 28.6466 280.023 29.3458C280.723 30.0451 281.19 30.5113 282.124 30.5113C282.824 30.5113 283.291 30.2782 283.525 30.0451C283.758 29.812 283.991 29.1128 284.225 28.1804ZM284.458 23.7519C284.458 22.3534 284.225 21.421 283.525 20.9549C283.058 20.2556 282.357 19.7895 281.657 19.7895C280.957 19.7895 280.257 20.2556 279.79 20.9549C279.323 21.6541 279.089 22.5864 279.089 23.7519H284.458Z"
    fill="#2F3370" stroke="#2F3370" stroke-width="0.5" stroke-miterlimit="10" />
  <path
    d="M290.994 16.9925H294.496V19.3233C294.963 18.391 295.429 17.6917 296.363 17.2256C297.063 16.7594 297.997 16.5263 298.931 16.5263C300.565 16.5263 301.732 17.2256 302.899 18.8571C304.066 20.4887 304.533 22.5865 304.533 25.1504C304.533 27.9474 303.833 30.0451 302.899 31.6767C301.732 33.3083 300.565 34.0075 298.697 34.0075C297.997 34.0075 297.297 33.7744 296.597 33.5413C295.896 33.0752 295.429 32.609 294.729 31.6767V40.0677H290.994V16.9925ZM294.496 24.9173C294.496 26.7819 294.729 28.1804 295.429 29.1128C296.13 30.0451 296.83 30.5113 297.764 30.5113C298.697 30.5113 299.398 30.0451 299.865 29.3459C300.331 28.4135 300.798 27.2481 300.798 25.1504C300.798 23.5188 300.565 22.1203 299.865 21.188C299.164 20.2556 298.464 20.0225 297.764 20.0225C296.83 20.0225 296.13 20.4887 295.663 21.188C294.729 22.1203 294.496 23.2857 294.496 24.9173Z"
    fill="#2F3370" stroke="#2F3370" stroke-width="0.5" stroke-miterlimit="10" />
  <path
    d="M85.8098 16.9925H89.0778V19.3233C90.2449 17.6917 91.6455 16.7594 93.2795 16.7594C94.2132 16.7594 94.9135 16.9925 95.6138 17.4586C96.5475 17.6917 97.0144 18.391 97.4813 19.3233C98.1815 18.391 98.6484 17.6917 99.5821 17.2256C100.282 16.7594 100.983 16.5263 101.683 16.5263C102.617 16.5263 103.55 16.7594 104.251 17.2256C104.951 17.6917 105.418 18.391 105.885 19.3233C106.118 20.0225 106.118 21.188 106.118 22.8195V33.5413H102.617V23.985C102.617 22.3534 102.383 21.188 102.15 20.7218C101.916 20.0225 101.216 19.7895 100.516 19.7895C100.049 19.7895 99.5821 20.0225 99.1153 20.4887C98.6484 20.9549 98.415 21.421 98.1815 22.1203C97.9481 22.8195 97.7147 23.985 97.7147 25.6165V33.5413H93.9798V24.4511C93.9798 22.8195 93.9798 21.8872 93.7464 21.421C93.513 20.9549 93.513 20.4887 93.0461 20.2556C92.8127 20.0225 92.3458 19.7895 91.8789 19.7895C91.4121 19.7895 90.9452 20.0225 90.4784 20.4887C90.0115 20.7218 89.7781 21.421 89.5447 22.1203C89.3112 22.8195 89.3112 23.985 89.3112 25.6165V33.7744H85.5764V16.9925H85.8098Z"
    fill="#2F3370" stroke="#2F3370" stroke-width="0.5" stroke-miterlimit="10" />
  <path
    d="M124.326 16.9925H127.594V19.3233C128.06 18.391 128.761 17.6917 129.461 17.2256C130.161 16.7594 131.095 16.5263 132.029 16.5263C133.663 16.5263 134.83 17.2256 135.997 18.8571C137.164 20.4887 137.631 22.5865 137.631 25.1504C137.631 27.9474 137.164 30.0451 135.997 31.6767C134.83 33.3083 133.663 34.0075 131.795 34.0075C131.095 34.0075 130.395 33.7744 129.694 33.5413C128.994 33.0752 128.527 32.609 127.827 31.6767V40.0677H124.092V16.9925H124.326ZM128.06 24.9173C128.06 26.7819 128.294 28.1804 128.994 29.1128C129.695 30.0451 130.395 30.5113 131.329 30.5113C132.262 30.5113 132.963 30.0451 133.429 29.3459C133.896 28.4135 134.13 27.2481 134.13 25.1504C134.13 23.5188 133.896 22.1203 133.429 21.188C132.729 20.2556 132.029 20.0225 131.329 20.0225C130.628 20.0225 129.694 20.4887 129.228 21.188C128.294 22.1203 128.06 23.2857 128.06 24.9173Z"
    fill="#2F3370" stroke="#2F3370" stroke-width="0.5" stroke-miterlimit="10" />
  <path
    d="M140.666 33.5413V10.6992H144.167V22.8195L148.369 16.9925H153.037L148.369 23.0526L153.271 33.5413H149.303L146.035 26.0827L144.167 28.1804V33.5413H140.666Z"
    fill="#2F3370" stroke="#2F3370" stroke-width="0.5" stroke-miterlimit="10" />
  <path
    d="M154.671 25.1503C154.671 23.7518 154.905 22.3533 155.605 20.9548C156.305 19.5563 157.006 18.624 158.173 17.9248C159.34 17.2255 160.507 16.7593 161.908 16.7593C164.009 16.7593 165.643 17.6917 167.043 19.3232C168.444 20.9548 169.144 23.0526 169.144 25.6165C169.144 28.1804 168.444 30.2781 167.043 31.9097C165.643 33.5413 164.009 34.2405 161.908 34.2405C160.741 34.2405 159.573 34.0075 158.406 33.3082C157.239 32.609 156.305 31.6766 155.839 30.2781C154.905 28.6466 154.671 27.015 154.671 25.1503ZM158.406 25.1503C158.406 26.7819 158.64 28.1804 159.34 28.8796C160.04 29.812 160.741 30.2781 161.674 30.2781C162.608 30.2781 163.542 29.812 164.009 28.8796C164.709 27.9473 164.942 26.7819 164.942 25.1503C164.942 23.5187 164.709 22.3533 164.009 21.421C163.308 20.4887 162.608 20.0225 161.674 20.0225C160.741 20.0225 160.04 20.4887 159.34 21.421C158.64 22.3533 158.406 23.5187 158.406 25.1503Z"
    fill="#2F3370" stroke="#2F3370" stroke-width="0.5" stroke-miterlimit="10" />
  <path
    d="M187.352 34.7067L191.553 35.406C191.553 36.1052 191.787 36.3383 192.02 36.5714C192.254 36.8045 192.954 37.0375 193.654 37.0375C194.588 37.0375 195.288 36.8045 195.755 36.5714C195.989 36.3383 196.222 35.8721 196.455 35.406C196.689 35.1729 196.689 34.4736 196.689 33.3082V30.9774C195.522 32.842 194.121 33.7744 192.487 33.7744C190.62 33.7744 189.219 32.842 188.052 30.9774C187.118 29.3458 186.885 27.7142 186.885 25.3834C186.885 22.5864 187.352 20.4887 188.519 19.0902C189.686 17.6917 191.086 16.7593 192.72 16.7593C194.588 16.7593 195.755 17.6917 196.922 19.5563V16.9924H200.19V31.9097C200.19 34.0075 199.957 35.406 199.723 36.3383C199.49 37.2706 199.023 37.9699 198.556 38.6691C198.089 39.3684 197.389 39.6014 196.455 40.0676C196.222 40.0676 195.055 40.3007 193.888 40.3007C191.553 40.3007 189.919 39.8345 188.752 38.9022C187.818 37.9699 187.352 36.8045 187.352 35.1729C187.352 34.9398 187.352 34.9398 187.352 34.7067ZM190.62 24.9172C190.62 26.7819 190.853 27.9473 191.553 28.6466C192.02 29.5789 192.72 29.812 193.654 29.812C194.588 29.812 195.288 29.3458 195.989 28.6466C196.689 27.7142 196.922 26.5488 196.922 24.9172C196.922 23.2857 196.689 21.8872 195.989 21.1879C195.288 20.4887 194.588 20.0225 193.654 20.0225C192.72 20.0225 192.02 20.4887 191.553 21.1879C191.086 21.8872 190.62 23.2857 190.62 24.9172Z"
    fill="#2F3370" stroke="#2F3370" stroke-width="0.5" stroke-miterlimit="10" />
</svg>